<svg width="281" height="43" viewBox="0 0 281 43" fill="none" xmlns="http://www.w3.org/2000/svg">
<rect width="281" height="43" rx="9" fill="#F1CDB3"/>
<path d="M68.1812 24.2461C68.1812 25.0664 67.8271 25.772 67.1191 26.3628C66.4111 26.9536 65.481 27.249 64.3286 27.249C63.2495 27.249 62.3853 26.978 61.7358 26.436C61.0864 25.894 60.7617 25.1958 60.7617 24.3413C60.7617 23.7114 60.9521 23.1865 61.333 22.7666C61.7188 22.3418 62.2876 21.9829 63.0396 21.6899C62.4194 21.3433 61.9556 20.9624 61.6479 20.5474C61.3403 20.1323 61.1865 19.6636 61.1865 19.1411C61.1865 18.3452 61.5234 17.6787 62.1973 17.1416C62.876 16.6045 63.6865 16.3359 64.6289 16.3359C65.5713 16.3359 66.333 16.5898 66.9141 17.0977C67.5 17.6055 67.793 18.2427 67.793 19.0093C67.793 19.5024 67.6318 19.9712 67.3096 20.4155C66.9873 20.855 66.5137 21.2163 65.8887 21.4995C66.6992 21.8462 67.2827 22.2295 67.6392 22.6494C68.0005 23.0693 68.1812 23.6016 68.1812 24.2461ZM66.4087 18.9287C66.4087 18.333 66.2305 17.8496 65.874 17.4785C65.5225 17.1025 65.0708 16.9146 64.519 16.9146C63.9673 16.9146 63.5156 17.0952 63.1641 17.4565C62.8125 17.813 62.6367 18.2573 62.6367 18.7896C62.6367 19.3022 62.8369 19.7368 63.2373 20.0933C63.6377 20.4497 64.3506 20.8306 65.376 21.2358C65.7422 21.0015 66.0059 20.6914 66.167 20.3057C66.3281 19.9199 66.4087 19.4609 66.4087 18.9287ZM66.7163 24.5903C66.7163 24.2827 66.6504 24.0142 66.5186 23.7847C66.3867 23.5503 66.1963 23.3379 65.9473 23.1475C65.708 22.9619 65.3735 22.769 64.9438 22.5688C64.519 22.3638 64.0576 22.1562 63.5596 21.9463C63.0908 22.2002 62.7466 22.5249 62.5269 22.9204C62.3071 23.311 62.1973 23.7578 62.1973 24.2607C62.1973 24.9785 62.4072 25.5596 62.8271 26.0039C63.252 26.4434 63.8159 26.6631 64.519 26.6631C65.1929 26.6631 65.7275 26.4678 66.123 26.0771C66.5186 25.6865 66.7163 25.1909 66.7163 24.5903ZM73.4171 29.6733C72.9581 29.6733 72.5382 29.6147 72.1573 29.4976C71.7765 29.3853 71.4493 29.2314 71.1759 29.0361C70.9024 28.8408 70.69 28.6162 70.5387 28.3623C70.3922 28.1084 70.3189 27.8472 70.3189 27.5786C70.3189 27.3394 70.3775 27.1245 70.4947 26.9341C70.6119 26.7388 70.7999 26.6411 71.0587 26.6411C71.3517 26.6411 71.5738 26.7144 71.7252 26.8608C71.8814 27.0024 71.9596 27.166 71.9596 27.3516C71.9596 27.5078 71.9327 27.7056 71.879 27.9448C71.8302 28.1841 71.7911 28.355 71.7618 28.4575C71.796 28.5015 71.857 28.5601 71.9449 28.6333C72.0377 28.7065 72.15 28.7725 72.2818 28.8311C72.4381 28.9043 72.6017 28.9629 72.7726 29.0068C72.9435 29.0508 73.1852 29.0728 73.4977 29.0728C73.7906 29.0728 74.0714 29.0239 74.3399 28.9263C74.6134 28.8286 74.8526 28.6724 75.0577 28.4575C75.2726 28.2329 75.4386 27.9692 75.5558 27.6665C75.6778 27.3687 75.7389 26.9756 75.7389 26.4873C75.7389 26.2236 75.7096 25.9624 75.651 25.7036C75.5973 25.4448 75.4947 25.2202 75.3434 25.0298C75.192 24.8394 74.9845 24.6929 74.7208 24.5903C74.462 24.4829 74.1324 24.4292 73.732 24.4292H72.7726V23.5869H73.4098C74.0836 23.5869 74.5694 23.4014 74.8673 23.0303C75.1651 22.6592 75.3141 22.1001 75.3141 21.353C75.3141 20.7427 75.17 20.2837 74.8819 19.9761C74.5938 19.6636 74.1861 19.5073 73.6588 19.5073C73.4049 19.5073 73.1949 19.5391 73.0289 19.6025C72.8678 19.6611 72.7359 19.7197 72.6334 19.7783C72.5113 19.8467 72.4112 19.9224 72.3331 20.0054C72.255 20.0884 72.1964 20.1494 72.1573 20.1885C72.1915 20.3447 72.233 20.5376 72.2818 20.7671C72.3307 20.9917 72.3551 21.2065 72.3551 21.4116C72.3551 21.5923 72.277 21.7559 72.1207 21.9023C71.9693 22.0439 71.7447 22.1147 71.4469 22.1147C71.1881 22.1147 70.9977 22.022 70.8756 21.8364C70.7584 21.6509 70.6998 21.436 70.6998 21.1919C70.6998 20.938 70.7706 20.6792 70.9122 20.4155C71.0538 20.1519 71.2638 19.9053 71.5421 19.6758C71.8204 19.4463 72.1598 19.2607 72.5602 19.1191C72.9605 18.9775 73.422 18.9067 73.9444 18.9067C74.545 18.9067 75.0406 18.9971 75.4312 19.1777C75.8268 19.3535 76.1368 19.5684 76.3614 19.8223C76.5812 20.0713 76.7325 20.3325 76.8155 20.606C76.8985 20.8794 76.94 21.1138 76.94 21.3091C76.94 21.5532 76.9059 21.7998 76.8375 22.0488C76.7691 22.293 76.6568 22.52 76.5006 22.73C76.3297 22.9595 76.1026 23.1694 75.8194 23.3599C75.5411 23.5454 75.1896 23.6968 74.7647 23.814V23.9312C75.0382 23.9556 75.3287 24.0166 75.6363 24.1143C75.9488 24.2119 76.2296 24.356 76.4786 24.5464C76.7374 24.7466 76.9498 25.0054 77.1158 25.3228C77.2818 25.6353 77.3648 26.0332 77.3648 26.5166C77.3648 27.4541 76.9889 28.2134 76.2369 28.7944C75.485 29.3804 74.545 29.6733 73.4171 29.6733ZM87.2077 24.2461C87.2077 25.0664 86.8537 25.772 86.1457 26.3628C85.4377 26.9536 84.5075 27.249 83.3552 27.249C82.2761 27.249 81.4118 26.978 80.7624 26.436C80.113 25.894 79.7883 25.1958 79.7883 24.3413C79.7883 23.7114 79.9787 23.1865 80.3596 22.7666C80.7453 22.3418 81.3142 21.9829 82.0661 21.6899C81.446 21.3433 80.9821 20.9624 80.6745 20.5474C80.3669 20.1323 80.2131 19.6636 80.2131 19.1411C80.2131 18.3452 80.55 17.6787 81.2238 17.1416C81.9025 16.6045 82.7131 16.3359 83.6555 16.3359C84.5979 16.3359 85.3596 16.5898 85.9406 17.0977C86.5266 17.6055 86.8195 18.2427 86.8195 19.0093C86.8195 19.5024 86.6584 19.9712 86.3361 20.4155C86.0139 20.855 85.5402 21.2163 84.9152 21.4995C85.7258 21.8462 86.3093 22.2295 86.6657 22.6494C87.0271 23.0693 87.2077 23.6016 87.2077 24.2461ZM85.4353 18.9287C85.4353 18.333 85.257 17.8496 84.9006 17.4785C84.549 17.1025 84.0974 16.9146 83.5456 16.9146C82.9938 16.9146 82.5422 17.0952 82.1906 17.4565C81.8391 17.813 81.6633 18.2573 81.6633 18.7896C81.6633 19.3022 81.8635 19.7368 82.2639 20.0933C82.6643 20.4497 83.3771 20.8306 84.4025 21.2358C84.7687 21.0015 85.0324 20.6914 85.1936 20.3057C85.3547 19.9199 85.4353 19.4609 85.4353 18.9287ZM85.7429 24.5903C85.7429 24.2827 85.677 24.0142 85.5451 23.7847C85.4133 23.5503 85.2229 23.3379 84.9738 23.1475C84.7346 22.9619 84.4001 22.769 83.9704 22.5688C83.5456 22.3638 83.0842 22.1562 82.5861 21.9463C82.1174 22.2002 81.7731 22.5249 81.5534 22.9204C81.3337 23.311 81.2238 23.7578 81.2238 24.2607C81.2238 24.9785 81.4338 25.5596 81.8537 26.0039C82.2785 26.4434 82.8425 26.6631 83.5456 26.6631C84.2194 26.6631 84.7541 26.4678 85.1496 26.0771C85.5451 25.6865 85.7429 25.1909 85.7429 24.5903ZM96.3987 20.1592C96.7112 20.5352 96.9432 20.9771 97.0945 21.4849C97.2508 21.9878 97.3289 22.5151 97.3289 23.0669C97.3289 23.731 97.2337 24.3267 97.0433 24.854C96.8528 25.3765 96.5916 25.811 96.2596 26.1577C95.9178 26.5142 95.5125 26.7827 95.0438 26.9634C94.575 27.144 94.0525 27.2344 93.4764 27.2344C92.8465 27.2344 92.285 27.1294 91.7918 26.9194C91.2986 26.7095 90.8982 26.4214 90.5906 26.0552C90.2684 25.6743 90.0267 25.23 89.8655 24.7222C89.7093 24.2095 89.6312 23.6577 89.6312 23.0669C89.6312 22.4858 89.7068 21.9512 89.8582 21.4629C90.0145 20.9746 90.2562 20.5327 90.5833 20.1372C90.8958 19.7563 91.2986 19.4561 91.7918 19.2363C92.285 19.0166 92.8489 18.9067 93.4837 18.9067C94.1526 18.9067 94.7264 19.019 95.2049 19.2437C95.6834 19.4683 96.0813 19.7734 96.3987 20.1592ZM95.7103 23.0669C95.7103 21.9048 95.5101 21.0039 95.1097 20.3643C94.7142 19.7246 94.1746 19.4048 93.491 19.4048C92.7977 19.4048 92.2508 19.7246 91.8504 20.3643C91.45 21.0039 91.2498 21.9048 91.2498 23.0669C91.2498 24.1704 91.4402 25.0591 91.8211 25.7329C92.2068 26.4019 92.7586 26.7363 93.4764 26.7363C94.1941 26.7363 94.7459 26.4019 95.1316 25.7329C95.5174 25.0591 95.7103 24.1704 95.7103 23.0669ZM111.177 27H104.314V26.0039C104.446 25.8525 104.629 25.6841 104.864 25.4985C105.098 25.3081 105.376 25.103 105.699 24.8833C105.894 24.7515 106.128 24.6074 106.402 24.4512C106.675 24.2949 106.985 24.124 107.332 23.9385C107.718 23.7334 108.013 23.5527 108.218 23.3965C108.428 23.2402 108.619 23.0474 108.79 22.8179C108.902 22.6665 108.992 22.4785 109.061 22.2539C109.129 22.0244 109.163 21.6997 109.163 21.2798C109.163 20.6694 109 20.2227 108.672 19.9395C108.345 19.6514 107.925 19.5073 107.413 19.5073C107.095 19.5073 106.795 19.5708 106.512 19.6978C106.229 19.8198 106.016 19.9907 105.875 20.2104C105.909 20.3667 105.95 20.5522 105.999 20.7671C106.053 20.9819 106.08 21.1919 106.08 21.397C106.08 21.5825 106.001 21.7485 105.845 21.895C105.694 22.0366 105.467 22.1074 105.164 22.1074C104.92 22.1074 104.732 22.0244 104.6 21.8584C104.468 21.6875 104.402 21.4604 104.402 21.1772C104.402 20.9136 104.476 20.6499 104.622 20.3862C104.769 20.1177 104.979 19.8711 105.252 19.6465C105.521 19.4268 105.853 19.2485 106.248 19.1118C106.644 18.9751 107.071 18.9067 107.53 18.9067C108.531 18.9067 109.324 19.1313 109.91 19.5806C110.501 20.0249 110.796 20.6206 110.796 21.3677C110.796 21.7241 110.743 22.0488 110.635 22.3418C110.533 22.6348 110.364 22.8936 110.13 23.1182C109.871 23.3672 109.568 23.582 109.222 23.7627C108.875 23.9385 108.345 24.1851 107.632 24.5024C107.208 24.6929 106.812 24.8931 106.446 25.103C106.08 25.3081 105.779 25.5083 105.545 25.7036H111.177V27ZM120.969 24.2461C120.969 25.0664 120.615 25.772 119.907 26.3628C119.199 26.9536 118.269 27.249 117.116 27.249C116.037 27.249 115.173 26.978 114.524 26.436C113.874 25.894 113.549 25.1958 113.549 24.3413C113.549 23.7114 113.74 23.1865 114.121 22.7666C114.506 22.3418 115.075 21.9829 115.827 21.6899C115.207 21.3433 114.743 20.9624 114.436 20.5474C114.128 20.1323 113.974 19.6636 113.974 19.1411C113.974 18.3452 114.311 17.6787 114.985 17.1416C115.664 16.6045 116.474 16.3359 117.417 16.3359C118.359 16.3359 119.121 16.5898 119.702 17.0977C120.288 17.6055 120.581 18.2427 120.581 19.0093C120.581 19.5024 120.42 19.9712 120.097 20.4155C119.775 20.855 119.301 21.2163 118.676 21.4995C119.487 21.8462 120.07 22.2295 120.427 22.6494C120.788 23.0693 120.969 23.6016 120.969 24.2461ZM119.196 18.9287C119.196 18.333 119.018 17.8496 118.662 17.4785C118.31 17.1025 117.858 16.9146 117.307 16.9146C116.755 16.9146 116.303 17.0952 115.952 17.4565C115.6 17.813 115.424 18.2573 115.424 18.7896C115.424 19.3022 115.625 19.7368 116.025 20.0933C116.425 20.4497 117.138 20.8306 118.164 21.2358C118.53 21.0015 118.794 20.6914 118.955 20.3057C119.116 19.9199 119.196 19.4609 119.196 18.9287ZM119.504 24.5903C119.504 24.2827 119.438 24.0142 119.306 23.7847C119.174 23.5503 118.984 23.3379 118.735 23.1475C118.496 22.9619 118.161 22.769 117.732 22.5688C117.307 22.3638 116.845 22.1562 116.347 21.9463C115.879 22.2002 115.534 22.5249 115.315 22.9204C115.095 23.311 114.985 23.7578 114.985 24.2607C114.985 24.9785 115.195 25.5596 115.615 26.0039C116.04 26.4434 116.604 26.6631 117.307 26.6631C117.981 26.6631 118.515 26.4678 118.911 26.0771C119.306 25.6865 119.504 25.1909 119.504 24.5903ZM130.819 24.2461C130.819 25.0664 130.465 25.772 129.757 26.3628C129.049 26.9536 128.119 27.249 126.967 27.249C125.887 27.249 125.023 26.978 124.374 26.436C123.724 25.894 123.4 25.1958 123.4 24.3413C123.4 23.7114 123.59 23.1865 123.971 22.7666C124.357 22.3418 124.925 21.9829 125.677 21.6899C125.057 21.3433 124.593 20.9624 124.286 20.5474C123.978 20.1323 123.824 19.6636 123.824 19.1411C123.824 18.3452 124.161 17.6787 124.835 17.1416C125.514 16.6045 126.324 16.3359 127.267 16.3359C128.209 16.3359 128.971 16.5898 129.552 17.0977C130.138 17.6055 130.431 18.2427 130.431 19.0093C130.431 19.5024 130.27 19.9712 129.947 20.4155C129.625 20.855 129.152 21.2163 128.527 21.4995C129.337 21.8462 129.921 22.2295 130.277 22.6494C130.638 23.0693 130.819 23.6016 130.819 24.2461ZM129.047 18.9287C129.047 18.333 128.868 17.8496 128.512 17.4785C128.16 17.1025 127.709 16.9146 127.157 16.9146C126.605 16.9146 126.154 17.0952 125.802 17.4565C125.45 17.813 125.275 18.2573 125.275 18.7896C125.275 19.3022 125.475 19.7368 125.875 20.0933C126.276 20.4497 126.988 20.8306 128.014 21.2358C128.38 21.0015 128.644 20.6914 128.805 20.3057C128.966 19.9199 129.047 19.4609 129.047 18.9287ZM129.354 24.5903C129.354 24.2827 129.288 24.0142 129.156 23.7847C129.025 23.5503 128.834 23.3379 128.585 23.1475C128.346 22.9619 128.011 22.769 127.582 22.5688C127.157 22.3638 126.696 22.1562 126.197 21.9463C125.729 22.2002 125.384 22.5249 125.165 22.9204C124.945 23.311 124.835 23.7578 124.835 24.2607C124.835 24.9785 125.045 25.5596 125.465 26.0039C125.89 26.4434 126.454 26.6631 127.157 26.6631C127.831 26.6631 128.365 26.4678 128.761 26.0771C129.156 25.6865 129.354 25.1909 129.354 24.5903ZM140.01 20.1592C140.323 20.5352 140.554 20.9771 140.706 21.4849C140.862 21.9878 140.94 22.5151 140.94 23.0669C140.94 23.731 140.845 24.3267 140.655 24.854C140.464 25.3765 140.203 25.811 139.871 26.1577C139.529 26.5142 139.124 26.7827 138.655 26.9634C138.186 27.144 137.664 27.2344 137.088 27.2344C136.458 27.2344 135.896 27.1294 135.403 26.9194C134.91 26.7095 134.51 26.4214 134.202 26.0552C133.88 25.6743 133.638 25.23 133.477 24.7222C133.321 24.2095 133.242 23.6577 133.242 23.0669C133.242 22.4858 133.318 21.9512 133.47 21.4629C133.626 20.9746 133.867 20.5327 134.195 20.1372C134.507 19.7563 134.91 19.4561 135.403 19.2363C135.896 19.0166 136.46 18.9067 137.095 18.9067C137.764 18.9067 138.338 19.019 138.816 19.2437C139.295 19.4683 139.693 19.7734 140.01 20.1592ZM139.322 23.0669C139.322 21.9048 139.121 21.0039 138.721 20.3643C138.325 19.7246 137.786 19.4048 137.102 19.4048C136.409 19.4048 135.862 19.7246 135.462 20.3643C135.061 21.0039 134.861 21.9048 134.861 23.0669C134.861 24.1704 135.052 25.0591 135.432 25.7329C135.818 26.4019 136.37 26.7363 137.088 26.7363C137.805 26.7363 138.357 26.4019 138.743 25.7329C139.129 25.0591 139.322 24.1704 139.322 23.0669ZM155.301 24.2461C155.301 25.0664 154.947 25.772 154.239 26.3628C153.531 26.9536 152.601 27.249 151.449 27.249C150.37 27.249 149.505 26.978 148.856 26.436C148.207 25.894 147.882 25.1958 147.882 24.3413C147.882 23.7114 148.072 23.1865 148.453 22.7666C148.839 22.3418 149.408 21.9829 150.16 21.6899C149.54 21.3433 149.076 20.9624 148.768 20.5474C148.46 20.1323 148.307 19.6636 148.307 19.1411C148.307 18.3452 148.644 17.6787 149.317 17.1416C149.996 16.6045 150.807 16.3359 151.749 16.3359C152.691 16.3359 153.453 16.5898 154.034 17.0977C154.62 17.6055 154.913 18.2427 154.913 19.0093C154.913 19.5024 154.752 19.9712 154.43 20.4155C154.107 20.855 153.634 21.2163 153.009 21.4995C153.819 21.8462 154.403 22.2295 154.759 22.6494C155.121 23.0693 155.301 23.6016 155.301 24.2461ZM153.529 18.9287C153.529 18.333 153.351 17.8496 152.994 17.4785C152.643 17.1025 152.191 16.9146 151.639 16.9146C151.087 16.9146 150.636 17.0952 150.284 17.4565C149.933 17.813 149.757 18.2573 149.757 18.7896C149.757 19.3022 149.957 19.7368 150.357 20.0933C150.758 20.4497 151.471 20.8306 152.496 21.2358C152.862 21.0015 153.126 20.6914 153.287 20.3057C153.448 19.9199 153.529 19.4609 153.529 18.9287ZM153.836 24.5903C153.836 24.2827 153.771 24.0142 153.639 23.7847C153.507 23.5503 153.316 23.3379 153.067 23.1475C152.828 22.9619 152.494 22.769 152.064 22.5688C151.639 22.3638 151.178 22.1562 150.68 21.9463C150.211 22.2002 149.867 22.5249 149.647 22.9204C149.427 23.311 149.317 23.7578 149.317 24.2607C149.317 24.9785 149.527 25.5596 149.947 26.0039C150.372 26.4434 150.936 26.6631 151.639 26.6631C152.313 26.6631 152.848 26.4678 153.243 26.0771C153.639 25.6865 153.836 25.1909 153.836 24.5903ZM164.492 20.1592C164.805 20.5352 165.037 20.9771 165.188 21.4849C165.344 21.9878 165.422 22.5151 165.422 23.0669C165.422 23.731 165.327 24.3267 165.137 24.854C164.946 25.3765 164.685 25.811 164.353 26.1577C164.011 26.5142 163.606 26.7827 163.137 26.9634C162.669 27.144 162.146 27.2344 161.57 27.2344C160.94 27.2344 160.379 27.1294 159.885 26.9194C159.392 26.7095 158.992 26.4214 158.684 26.0552C158.362 25.6743 158.12 25.23 157.959 24.7222C157.803 24.2095 157.725 23.6577 157.725 23.0669C157.725 22.4858 157.8 21.9512 157.952 21.4629C158.108 20.9746 158.35 20.5327 158.677 20.1372C158.989 19.7563 159.392 19.4561 159.885 19.2363C160.379 19.0166 160.942 18.9067 161.577 18.9067C162.246 18.9067 162.82 19.019 163.298 19.2437C163.777 19.4683 164.175 19.7734 164.492 20.1592ZM163.804 23.0669C163.804 21.9048 163.604 21.0039 163.203 20.3643C162.808 19.7246 162.268 19.4048 161.585 19.4048C160.891 19.4048 160.344 19.7246 159.944 20.3643C159.544 21.0039 159.343 21.9048 159.343 23.0669C159.343 24.1704 159.534 25.0591 159.915 25.7329C160.3 26.4019 160.852 26.7363 161.57 26.7363C162.288 26.7363 162.839 26.4019 163.225 25.7329C163.611 25.0591 163.804 24.1704 163.804 23.0669ZM174.753 27H167.89V26.0039C168.022 25.8525 168.205 25.6841 168.439 25.4985C168.674 25.3081 168.952 25.103 169.274 24.8833C169.469 24.7515 169.704 24.6074 169.977 24.4512C170.251 24.2949 170.561 24.124 170.907 23.9385C171.293 23.7334 171.589 23.5527 171.794 23.3965C172.004 23.2402 172.194 23.0474 172.365 22.8179C172.477 22.6665 172.568 22.4785 172.636 22.2539C172.704 22.0244 172.738 21.6997 172.738 21.2798C172.738 20.6694 172.575 20.2227 172.248 19.9395C171.921 19.6514 171.501 19.5073 170.988 19.5073C170.671 19.5073 170.37 19.5708 170.087 19.6978C169.804 19.8198 169.592 19.9907 169.45 20.2104C169.484 20.3667 169.526 20.5522 169.574 20.7671C169.628 20.9819 169.655 21.1919 169.655 21.397C169.655 21.5825 169.577 21.7485 169.421 21.895C169.269 22.0366 169.042 22.1074 168.739 22.1074C168.495 22.1074 168.307 22.0244 168.175 21.8584C168.044 21.6875 167.978 21.4604 167.978 21.1772C167.978 20.9136 168.051 20.6499 168.197 20.3862C168.344 20.1177 168.554 19.8711 168.827 19.6465C169.096 19.4268 169.428 19.2485 169.823 19.1118C170.219 18.9751 170.646 18.9067 171.105 18.9067C172.106 18.9067 172.9 19.1313 173.486 19.5806C174.076 20.0249 174.372 20.6206 174.372 21.3677C174.372 21.7241 174.318 22.0488 174.211 22.3418C174.108 22.6348 173.94 22.8936 173.705 23.1182C173.446 23.3672 173.144 23.582 172.797 23.7627C172.45 23.9385 171.921 24.1851 171.208 24.5024C170.783 24.6929 170.387 24.8931 170.021 25.103C169.655 25.3081 169.355 25.5083 169.12 25.7036H174.753V27ZM184.544 24.2461C184.544 25.0664 184.19 25.772 183.482 26.3628C182.774 26.9536 181.844 27.249 180.692 27.249C179.613 27.249 178.748 26.978 178.099 26.436C177.45 25.894 177.125 25.1958 177.125 24.3413C177.125 23.7114 177.315 23.1865 177.696 22.7666C178.082 22.3418 178.651 21.9829 179.403 21.6899C178.783 21.3433 178.319 20.9624 178.011 20.5474C177.703 20.1323 177.55 19.6636 177.55 19.1411C177.55 18.3452 177.887 17.6787 178.56 17.1416C179.239 16.6045 180.05 16.3359 180.992 16.3359C181.934 16.3359 182.696 16.5898 183.277 17.0977C183.863 17.6055 184.156 18.2427 184.156 19.0093C184.156 19.5024 183.995 19.9712 183.673 20.4155C183.35 20.855 182.877 21.2163 182.252 21.4995C183.062 21.8462 183.646 22.2295 184.002 22.6494C184.364 23.0693 184.544 23.6016 184.544 24.2461ZM182.772 18.9287C182.772 18.333 182.594 17.8496 182.237 17.4785C181.886 17.1025 181.434 16.9146 180.882 16.9146C180.33 16.9146 179.879 17.0952 179.527 17.4565C179.176 17.813 179 18.2573 179 18.7896C179 19.3022 179.2 19.7368 179.6 20.0933C180.001 20.4497 180.714 20.8306 181.739 21.2358C182.105 21.0015 182.369 20.6914 182.53 20.3057C182.691 19.9199 182.772 19.4609 182.772 18.9287ZM183.079 24.5903C183.079 24.2827 183.013 24.0142 182.882 23.7847C182.75 23.5503 182.559 23.3379 182.31 23.1475C182.071 22.9619 181.737 22.769 181.307 22.5688C180.882 22.3638 180.421 22.1562 179.923 21.9463C179.454 22.2002 179.11 22.5249 178.89 22.9204C178.67 23.311 178.56 23.7578 178.56 24.2607C178.56 24.9785 178.77 25.5596 179.19 26.0039C179.615 26.4434 180.179 26.6631 180.882 26.6631C181.556 26.6631 182.091 26.4678 182.486 26.0771C182.882 25.6865 183.079 25.1909 183.079 24.5903ZM198.913 24.2461C198.913 25.0664 198.559 25.772 197.851 26.3628C197.143 26.9536 196.212 27.249 195.06 27.249C193.981 27.249 193.117 26.978 192.467 26.436C191.818 25.894 191.493 25.1958 191.493 24.3413C191.493 23.7114 191.684 23.1865 192.064 22.7666C192.45 22.3418 193.019 21.9829 193.771 21.6899C193.151 21.3433 192.687 20.9624 192.379 20.5474C192.072 20.1323 191.918 19.6636 191.918 19.1411C191.918 18.3452 192.255 17.6787 192.929 17.1416C193.607 16.6045 194.418 16.3359 195.36 16.3359C196.303 16.3359 197.064 16.5898 197.646 17.0977C198.231 17.6055 198.524 18.2427 198.524 19.0093C198.524 19.5024 198.363 19.9712 198.041 20.4155C197.719 20.855 197.245 21.2163 196.62 21.4995C197.431 21.8462 198.014 22.2295 198.371 22.6494C198.732 23.0693 198.913 23.6016 198.913 24.2461ZM197.14 18.9287C197.14 18.333 196.962 17.8496 196.605 17.4785C196.254 17.1025 195.802 16.9146 195.25 16.9146C194.699 16.9146 194.247 17.0952 193.896 17.4565C193.544 17.813 193.368 18.2573 193.368 18.7896C193.368 19.3022 193.568 19.7368 193.969 20.0933C194.369 20.4497 195.082 20.8306 196.107 21.2358C196.474 21.0015 196.737 20.6914 196.898 20.3057C197.06 19.9199 197.14 19.4609 197.14 18.9287ZM197.448 24.5903C197.448 24.2827 197.382 24.0142 197.25 23.7847C197.118 23.5503 196.928 23.3379 196.679 23.1475C196.439 22.9619 196.105 22.769 195.675 22.5688C195.25 22.3638 194.789 22.1562 194.291 21.9463C193.822 22.2002 193.478 22.5249 193.258 22.9204C193.039 23.311 192.929 23.7578 192.929 24.2607C192.929 24.9785 193.139 25.5596 193.559 26.0039C193.983 26.4434 194.547 26.6631 195.25 26.6631C195.924 26.6631 196.459 26.4678 196.854 26.0771C197.25 25.6865 197.448 25.1909 197.448 24.5903ZM208.118 19.6172L202.896 29.6733H201.981L206.895 20.3716H204.017C203.592 20.3716 203.26 20.3765 203.021 20.3862C202.781 20.396 202.562 20.4424 202.361 20.5254C202.21 20.5889 202.073 20.7524 201.951 21.0161C201.834 21.2749 201.744 21.6069 201.68 22.0122H201.233V19.1411H208.118V19.6172ZM216.76 23.2207C216.76 24.0703 216.626 24.8711 216.357 25.623C216.089 26.3701 215.703 27.0269 215.2 27.5933C214.707 28.1499 214.104 28.6113 213.391 28.9775C212.683 29.3486 211.889 29.5928 211.01 29.71L210.879 29.0508L211.538 28.9336C212.588 28.6016 213.408 28.0913 213.999 27.4028C214.59 26.7144 214.97 25.8403 215.141 24.7808C214.741 25.1226 214.341 25.374 213.94 25.5352C213.545 25.6914 213.098 25.7695 212.6 25.7695C211.804 25.7695 211.111 25.4595 210.52 24.8394C209.934 24.2192 209.641 23.438 209.641 22.4956C209.641 21.4849 209.98 20.6328 210.659 19.9395C211.342 19.2461 212.185 18.8994 213.186 18.8994C214.275 18.8994 215.141 19.2876 215.786 20.064C216.435 20.8403 216.76 21.8926 216.76 23.2207ZM215.207 23.1328C215.207 21.9902 215.019 21.0967 214.643 20.4521C214.272 19.8027 213.781 19.478 213.171 19.478C212.59 19.478 212.121 19.7295 211.765 20.2324C211.408 20.7305 211.23 21.4189 211.23 22.2979C211.23 23.0889 211.411 23.7236 211.772 24.2021C212.138 24.6807 212.627 24.9199 213.237 24.9199C213.618 24.9199 213.967 24.8516 214.284 24.7148C214.602 24.5732 214.897 24.3486 215.171 24.041C215.171 24.0215 215.173 23.9824 215.178 23.9238C215.188 23.8652 215.193 23.7822 215.193 23.6748C215.193 23.6064 215.195 23.5234 215.2 23.4258C215.205 23.3281 215.207 23.2305 215.207 23.1328ZM224.347 27H219.41V26.48C219.557 26.4702 219.784 26.4507 220.092 26.4214C220.404 26.3872 220.619 26.353 220.736 26.3188C220.887 26.27 221.002 26.1919 221.08 26.0845C221.163 25.9722 221.205 25.8062 221.205 25.5864V20.4448H219.381V19.8296H219.784C220.311 19.8296 220.783 19.7319 221.198 19.5366C221.617 19.3413 221.918 19.1313 222.098 18.9067H222.706C222.692 19.2241 222.677 19.5952 222.662 20.02C222.648 20.4448 222.64 20.8257 222.64 21.1626V25.5059C222.64 25.6768 222.677 25.8306 222.75 25.9673C222.828 26.0991 222.938 26.1968 223.08 26.2603C223.207 26.314 223.414 26.3628 223.702 26.4067C223.991 26.4507 224.205 26.4751 224.347 26.48V27ZM237.822 19.6172L232.6 29.6733H231.684L236.599 20.3716H233.72C233.295 20.3716 232.963 20.3765 232.724 20.3862C232.485 20.396 232.265 20.4424 232.065 20.5254C231.914 20.5889 231.777 20.7524 231.655 21.0161C231.538 21.2749 231.447 21.6069 231.384 22.0122H230.937V19.1411H237.822V19.6172ZM246.669 26.3408H245.182V29.6733H243.775V26.3408H239.088V25.2129L244.222 18.9507H245.182V25.3813H246.669V26.3408ZM243.775 25.3813V20.584L239.82 25.3813H243.775ZM251.677 29.6733C251.218 29.6733 250.799 29.6147 250.418 29.4976C250.037 29.3853 249.71 29.2314 249.436 29.0361C249.163 28.8408 248.95 28.6162 248.799 28.3623C248.653 28.1084 248.579 27.8472 248.579 27.5786C248.579 27.3394 248.638 27.1245 248.755 26.9341C248.872 26.7388 249.06 26.6411 249.319 26.6411C249.612 26.6411 249.834 26.7144 249.986 26.8608C250.142 27.0024 250.22 27.166 250.22 27.3516C250.22 27.5078 250.193 27.7056 250.139 27.9448C250.091 28.1841 250.051 28.355 250.022 28.4575C250.056 28.5015 250.117 28.5601 250.205 28.6333C250.298 28.7065 250.41 28.7725 250.542 28.8311C250.698 28.9043 250.862 28.9629 251.033 29.0068C251.204 29.0508 251.446 29.0728 251.758 29.0728C252.051 29.0728 252.332 29.0239 252.6 28.9263C252.874 28.8286 253.113 28.6724 253.318 28.4575C253.533 28.2329 253.699 27.9692 253.816 27.6665C253.938 27.3687 253.999 26.9756 253.999 26.4873C253.999 26.2236 253.97 25.9624 253.911 25.7036C253.858 25.4448 253.755 25.2202 253.604 25.0298C253.452 24.8394 253.245 24.6929 252.981 24.5903C252.722 24.4829 252.393 24.4292 251.992 24.4292H251.033V23.5869H251.67C252.344 23.5869 252.83 23.4014 253.128 23.0303C253.425 22.6592 253.574 22.1001 253.574 21.353C253.574 20.7427 253.43 20.2837 253.142 19.9761C252.854 19.6636 252.446 19.5073 251.919 19.5073C251.665 19.5073 251.455 19.5391 251.289 19.6025C251.128 19.6611 250.996 19.7197 250.894 19.7783C250.772 19.8467 250.672 19.9224 250.593 20.0054C250.515 20.0884 250.457 20.1494 250.418 20.1885C250.452 20.3447 250.493 20.5376 250.542 20.7671C250.591 20.9917 250.615 21.2065 250.615 21.4116C250.615 21.5923 250.537 21.7559 250.381 21.9023C250.23 22.0439 250.005 22.1147 249.707 22.1147C249.448 22.1147 249.258 22.022 249.136 21.8364C249.019 21.6509 248.96 21.436 248.96 21.1919C248.96 20.938 249.031 20.6792 249.173 20.4155C249.314 20.1519 249.524 19.9053 249.802 19.6758C250.081 19.4463 250.42 19.2607 250.821 19.1191C251.221 18.9775 251.682 18.9067 252.205 18.9067C252.805 18.9067 253.301 18.9971 253.692 19.1777C254.087 19.3535 254.397 19.5684 254.622 19.8223C254.842 20.0713 254.993 20.3325 255.076 20.606C255.159 20.8794 255.2 21.1138 255.2 21.3091C255.2 21.5532 255.166 21.7998 255.098 22.0488C255.029 22.293 254.917 22.52 254.761 22.73C254.59 22.9595 254.363 23.1694 254.08 23.3599C253.801 23.5454 253.45 23.6968 253.025 23.814V23.9312C253.299 23.9556 253.589 24.0166 253.897 24.1143C254.209 24.2119 254.49 24.356 254.739 24.5464C254.998 24.7466 255.21 25.0054 255.376 25.3228C255.542 25.6353 255.625 26.0332 255.625 26.5166C255.625 27.4541 255.249 28.2134 254.497 28.7944C253.745 29.3804 252.805 29.6733 251.677 29.6733ZM263.461 23.5649C263.783 23.8188 264.05 24.146 264.26 24.5464C264.474 24.9468 264.582 25.4473 264.582 26.0479C264.582 27.0977 264.223 27.9644 263.505 28.6479C262.787 29.3315 261.877 29.6733 260.773 29.6733C259.919 29.6733 259.196 29.4707 258.605 29.0654C258.014 28.6602 257.719 28.189 257.719 27.6519C257.719 27.4028 257.78 27.1855 257.902 27C258.024 26.8145 258.212 26.7217 258.466 26.7217C258.759 26.7217 258.981 26.7998 259.133 26.9561C259.289 27.1074 259.367 27.2734 259.367 27.4541C259.367 27.6104 259.34 27.8057 259.286 28.04C259.233 28.2744 259.191 28.4478 259.162 28.5601C259.201 28.5942 259.264 28.6406 259.352 28.6992C259.44 28.7578 259.545 28.814 259.667 28.8677C259.794 28.9214 259.948 28.9678 260.129 29.0068C260.314 29.0508 260.529 29.0728 260.773 29.0728C261.086 29.0728 261.381 29.0093 261.659 28.8823C261.938 28.7554 262.172 28.5674 262.363 28.3184C262.573 28.0449 262.729 27.7324 262.831 27.3809C262.939 27.0342 262.992 26.5923 262.992 26.0552C262.992 25.3667 262.8 24.7979 262.414 24.3486C262.033 23.8945 261.53 23.6675 260.905 23.6675C260.514 23.6675 260.148 23.7407 259.806 23.8872C259.47 24.0337 259.167 24.2778 258.898 24.6196L258.408 24.4292L259.03 19.1411H264.274V20.4448H259.623L259.242 23.5503C259.462 23.394 259.75 23.2402 260.107 23.0889C260.468 22.9326 260.864 22.8545 261.293 22.8545C261.65 22.8545 262.018 22.9106 262.399 23.0229C262.785 23.1304 263.139 23.311 263.461 23.5649Z" fill="#545454"/>
<path d="M40.9815 33H19.0192C16.8028 33 15 31.2046 15 29.0001V13.9999C15 11.7942 16.8028 10 19.0192 10H40.9808C43.196 10 45 11.7942 45 13.9999V29.0001C45.0006 31.2052 43.1972 33 40.9815 33ZM19.0192 11.1429C17.4356 11.1429 16.1484 12.424 16.1484 13.9999V29.0001C16.1484 30.5755 17.4356 31.8571 19.0192 31.8571H40.9808C42.5638 31.8571 43.8516 30.5755 43.8516 29.0001V13.9999C43.8516 12.424 42.5638 11.1429 40.9808 11.1429H19.0192ZM35.7037 13.3599C37.1363 13.3599 38.2977 14.5153 38.2977 15.9415C38.2977 17.3677 37.1368 18.5238 35.7037 18.5238C34.2706 18.5238 33.1097 17.3678 33.1097 15.9415C33.1097 14.5152 34.2712 13.3599 35.7037 13.3599ZM39.3204 13.3599C40.7529 13.3599 41.9151 14.5153 41.9151 15.9415C41.9151 17.3677 40.7536 18.5238 39.3204 18.5238C37.8873 18.5238 36.7264 17.3678 36.7264 15.9415C36.7264 14.5152 37.8879 13.3599 39.3204 13.3599ZM18.0861 26.3339H22.8683V28.0481H18.0861V26.3339ZM24.4347 26.3339H29.2175V28.0481H24.4347V26.3339ZM30.782 26.3339H35.5659V28.0481H30.782V26.3339ZM37.1305 26.3339H41.9144V28.0481H37.1305V26.3339ZM18.0861 13.3605H27.1263V15.0747H18.0861V13.3605ZM18.0861 16.7621H22.8695V18.4764H18.0861V16.7621Z" fill="#292929"/>
</svg>
